<?xml version="1.0" encoding="UTF-8"?>
<svg version="1.1" viewBox="0 0 2048 1912" width="1280" height="1280" xmlns="http://www.w3.org/2000/svg">
<path transform="translate(0)" d="m0 0h2048v1912h-2048z" fill="#FCFCFC"/>
<path transform="translate(648,323)" d="m0 0h419l54 1 25 3 26 6 23 8 24 11 21 12 20 14 13 11 8 7 15 15 11 14 8 11 11 18 12 23 8 19 7 22 3 16 2 18 3 70v194l-1 118-2 19-4 17-7 19-11 24-4 8 45-5 13-3 3-232 1-54 1-130 1-7 6-2h114l9 2 2 5v75l-2 88-1 62-1 135 1 44 16-1 132-14 20-2h10l1 2v23l-99 12-290 33-471 53-276 31-118 13-55 6-22 2h-23l-3-1-1-2v-21l1-1 89-11 153-17h5v-596l8-1h119l4 1 1 438 1 37h442l16-4 12-6 9-7 5-4 9-12 6-12 3-10 1-8v-341l-3-25-5-17-10-21-12-17-14-14-14-10-14-8-15-6-15-4-19-2-39-1-457-1-20-1-1-1v-127z" fill="#90C3C7"/>
<path transform="translate(780,507)" d="m0 0h365l2 3v81l-3 3-282 1-2 1-1 88v40l1 116 7 2h235v-83l-1-5-12-1-137-1-2-1v-85l1-1h238l1 1v201l-5 18-8 14-11 12-8 7-15 8-12 4-5 1h-351l-3-1-1-14v-407l1-1z" fill="#90C3C7"/>
<path transform="translate(648,323)" d="m0 0h419l54 1 25 3 26 6 23 8 24 11 21 12 20 14 13 11 8 7 15 15 11 14 8 11 11 18 12 23 8 19 7 22 3 16 2 18 3 70v90h-1l-1-37-3-19-4-16-8-26-8-21-1-4h-2l-11-21-9-13-4-8-11-12-7-8-7-7-11-9-14-10-13-8-23-12-23-9-31-9-19-4-10-2h-13l-19-2-39-1-457-1-20-1-1-1v-127z" fill="#AFD8DC"/>
<path transform="translate(780,507)" d="m0 0h365l2 3v81l-3 3-282 1-2 1-1 88v40l1 118-4-1-27-11-10-6-9-7-13-13-12-18-7-15-2-3-3-2-1-8v-250z" fill="#74AAAA"/>
<path transform="translate(1149,1427)" d="m0 0h29l15 3 12 5 11 6 10 8 14 14v-34l1-1h142v42l-45 1-1 115h-51l-1-114-1-1-41-1 6 19 1 5v28l-3 12-8 16-7 9-5 5-9 8-14 8-12 5-17 4h-20l-16-3-13-5-12-6-13-10-9-10-8-13-5-14-3-21h-2l-3 9-6 9-8 8-12 7-12 4-16 2-25 1-1 39h-53v-158h80l17 2 12 4 10 6 9 8 7 11 3 8 3 20 6-16 6-10 9-10 7-7 13-8 12-5 10-3z" fill="#B0D9DD"/>
<path transform="translate(1069,1289)" d="m0 0h65l15 2 12 5 8 6 7 8 4 8 2 10v13l-3 12-7 12-8 8 1 5 9 14 6 9 2 1 3-11 15-34 12-29 14-33 2-6h43l7 15 11 28 16 39 12 29 1 2v-112l1-1h41l1 1v87l48 1 3 1v-49l1-41h104v32l-28 1h-34v12l56 1 1 1v31l-25 1h-31l-1 4v8l63 1 1 1v32h-242l-2-5-3-9-2-3-13-1h-30l-2 1-5 15-3 2h-77l-15-30-3-2h-11l-1 31-1 1h-39l-1-1-1-42v-81z" fill="#91C3C7"/>
<path transform="translate(770,1152)" d="m0 0h63l15 2 11 4 9 6 7 8 6 12 1 3v20l-4 12-7 11-7 6 2 5 13 22 6 11 2 1v-122l2-1h102l2 1v29l-1 3h-62v12l7 1h48l1 1v32l-56 1v11l3 1h59l1 1v32h-153l-3-5-9-19-3-6-2-1h-12l-1 31h-41l-1-1v-123z" fill="#92C4C8"/>
<path transform="translate(951,665)" d="m0 0h238l1 1v182h-1v-38l-4-1-7-13-5-5-9-10-12-9-17-8-6-2v-2l-9-2-17-5v6h-1l-1-5-12-1-137-1-2-1v-85z" fill="#AFD8DC"/>
<path transform="translate(744,1428)" d="m0 0h56l10 23 13 31 11 26 2 1 1-6 26-62 5-12 1-1h55v158l-1 1-45-1v-80h-2l-2 6-9 24-13 34-1 1h-32l-4-4-16-42-6-15-3-3 1 14v65h-47z" fill="#AFD8DC"/>
<path transform="translate(1051,1151)" d="m0 0h16l16 4 10 4 10 6v-12l5-1h147l2 6v116l-1 3h-39l-2-1-1-89h-33l-1 89-1 1h-40l-1-1v-89h-37l-2 4-7 9-4 2v-2l-4-2-7-6-9-4h-14l-8 4-5 6-3 6-1 5v11l4 11 7 7 9 3h7l10-3 11-7 3-3 4 2 14 15 7 7-2 4-8 7-13 8-11 5-12 3h-16l-14-3-16-8-11-9-8-11-6-12-3-8v-22l4-16 6-11 9-10 7-6 10-6 16-5z" fill="#91C4C8"/>
<path transform="translate(1523,322)" d="m0 0 5 1 7 9 5 11 4 18 3 14v11l-2 3-4-1-4-5h-2v7l1 1v8l-5 19-6 26-21 70-11 35-5 12-8 5-20 8h-7l-10-4-10-9-5-8-2-5v-16l-7-20v-7l5-10 9-14 4-11 2-9v-8l-6-20-1-3v-10l2-7 5-9 2-8 28-11 18-10 8-6 7-11 1-8 8-3 5-6 4-9 1-8z" fill="#AFD8DC"/>
<path transform="translate(1441,1426)" d="m0 0h30l21 4 19 7 11 6 2 4-13 27-5 11-24-10-19-6-15-2-4 2-1 6 5 4 18 6 20 6 16 7 10 9 6 7 5 12 1 5v11l-3 12-5 10-6 7-10 7-11 5-14 4-7 1h-22l-18-3-20-6-23-11-7-5 1-4 13-26 4-9 5 2 14 8 16 7 16 5h15l6-4v-6l-4-3-22-7-21-6-15-8-10-9-5-8-3-11v-14l3-12 6-10 8-8 14-8 15-5z" fill="#91C3C7"/>
<path transform="translate(1069,1289)" d="m0 0h65l15 2 12 5 8 6 7 8 4 8 2 10v13l-3 12-7 12-8 8 1 5 9 14 6 9 2 1 3-11 6-14 51 13 11 4v1l-26 1-2 1-5 15-3 2h-77l-15-30-3-2h-11l-1 31-1 1h-39l-1-1-1-42v-81z" fill="#91C3C7"/>
<path transform="translate(1322,1151)" d="m0 0h9l14 2 12 4 11 6 10 8 9 12 5 11 3 15v16l-4 14-7 12-9 10-9 7-16 8-8 2-9 1h-14l-14-3-12-5-10-6-10-9-7-10-5-11-2-8v-23l4-15 6-11 9-10 10-7 10-5 15-4z" fill="#91C3C7"/>
<path transform="translate(596,1152)" d="m0 0h58l19 3 11 4 10 6 9 8 9 14 4 11 2 11v14l-4 15-6 11-9 10-8 7-14 7-12 3-9 1h-51l-10-1v-106z" fill="#B0D9DD"/>
<path transform="translate(828,1289)" d="m0 0h34l8 9 10 13 13 17 14 19 4 3-1-19v-42h38l1 2v103l-1 20h-34l-20-26-11-14-13-16-2-4h-2v59l-1 1h-36l-1-1-1-56z" fill="#B0D9DD"/>
<path transform="translate(1420,1152)" d="m0 0h10l5 5 11 14 13 17 15 20 5 5v-60h38v124h-33l-5-4-12-16-8-10-10-13-13-16-1-1v59l-1 1h-36l-1-1-1-79v-34l1-10z" fill="#91C4C8"/>
<path transform="translate(957,1289)" d="m0 0h104l1 1v24l-1 7-40 1h-22l-1 13h57v32l-56 1-1 4v8l7 1 57 1 1 31-1 1h-105l-1-1v-123z" fill="#B0D9DD"/>
<path transform="translate(716,1289)" d="m0 0h104l1 1-1 31-61 1-1 1v11l56 1v32l-55 1-1 1v12l63 1v31l-1 1h-104l-1-1v-120z" fill="#B0D9DD"/>
<path transform="translate(889,1152)" d="m0 0h102l2 1v29l-1 3h-62v12l7 1h48l1 1v32l-56 1v11l3 1h59l1 1v12l-1 19h-104v-122z" fill="#91C4C8"/>
<path transform="translate(1413,1289)" d="m0 0h104v32l-28 1h-34v12l56 1 1 1v31l-25 1h-31l-1 4v8l63 1v32h-104z" fill="#91C3C7"/>
<path transform="translate(651,1288)" d="m0 0h15l14 3 16 6 12 7 2 2-1 5-10 13-9 11h-3l-13-8-12-4-10 1-12 6-6 8-3 10v7l4 12 7 8 9 4h14l8-2 1-29h36v51l-10 6-15 6-11 3-8 1h-21l-11-2-16-8-8-6-8-8-7-11-4-10-2-11v-13l2-12 5-12 6-9 8-9 10-7 12-5 11-3z" fill="#B0D9DD"/>
<path transform="translate(1393,1454)" d="m0 0 8 6 17 13 12 9 10 8 26 24 8 8 9 11 7 7 3 4v2h2l15 20v2l2 1-12 9-11 5-14 4-7 1h-22l-18-3-20-6-23-11-7-5 1-4 13-26 4-9 5 2 14 8 16 7 16 5h15l6-4v-6l-4-3-22-7-21-6-15-8-10-9-5-8-3-11v-14l3-12z" fill="#B0D9DD"/>
<path transform="translate(678,1428)" d="m0 0h52v158l-1 1h-51z" fill="#AFD8DC"/>
<path transform="translate(1068,1290)" d="m0 0h1l1 70 13 2 33 4 47 7 2 5 9 14 6 9 2 1 3-11 6-14 51 13 11 4v1l-26 1-2 1-5 15-3 2h-77l-15-30-3-2h-11l-1 31-1 1h-39l-1-1-1-42z" fill="#B0D9DD"/>
<path transform="translate(957,1289)" d="m0 0h104l1 1v24l-1 7-40 1h-22l-1 14h56v22l-11-1-48-9-26-5-11-3-1-1z" fill="#91C3C7"/>
<path transform="translate(725,1152)" d="m0 0h35l1 1v124h-33l-9-1v-123z" fill="#90C3C7"/>
<path transform="translate(596,1152)" d="m0 0h58l19 3 11 4 10 6 9 8 9 14 4 11 2 11v14l-4 15-4 8h-6l-9-7-12-8-8-5-1-17-3-10-4-6-7-5-16-2v-2l-7 1-2 7-4-1-10-10-8-7-11-13-5-5z" fill="#91C3C7"/>
<path transform="translate(1157,1471)" d="m0 0h13l11 4 8 7 5 7 3 12v13l-3 11-7 10-9 7-9 3h-9l-11-4-8-6-6-8-4-10v-18l5-12 6-8 9-6z" fill="#FDFDFD"/>
<path transform="translate(612,1531)" d="m0 0h16l8 3 8 8 4 8 1 4 1 34h-58l-1-1 1-35 3-8 7-8z" fill="#B0D9DD"/>
<path transform="translate(1320,1187)" d="m0 0h14l8 4 7 8 3 8v15l-6 12-8 7-9 3-8-1-10-5-6-7-4-12v-8l3-10 6-8 7-5z" fill="#FDFDFD"/>
<path transform="translate(637,1478)" d="m0 0 12 1 1 45-7 1h-51l-1-1v-45l13 1 1 1 1 24h8l1-22 1-1h10l1 1 1 22h6l1-25z" fill="#B0D9DD"/>
<path transform="translate(638,1185)" d="m0 0 18 1 7 3 7 6 4 9 1 5v10l-3 12-6 8-8 5h-21l-1-44 1-14z" fill="#FDFDFD"/>
<path transform="translate(625,1428)" d="m0 0h11l6 4 4 5 3 7v20l-3 8-3 5-5-2-7-3 3-12v-13h-3l-6 17-5 8-4 3-8 1-10-5-5-8-2-9 1-13 3-9 1-1 7 1 5 3-1 10-1 3v8l4 1 9-24 4-4z" fill="#B0D9DD"/>
<path transform="translate(911,1290)" d="m0 0h37v46l-4 1-22-5-10-2-1-3z" fill="#90C3C7"/>
<path transform="translate(1006,1468)" d="m0 0 12 1 7 6 2 4v14l-5 8-4 3-12 2h-14l-1-1v-36z" fill="#FDFDFD"/>
<path transform="translate(829,1289)" d="m0 0h33l8 9 10 13 4 5v3l-9-1-29-10-15-5-2-2z" fill="#92C4C8"/>
<path transform="translate(1111,1321)" d="m0 0h19l8 3 4 5v11l-5 8-2 1h-25v-27z" fill="#FDFDFD"/>
<path transform="translate(812,1184)" d="m0 0 21 1 6 3 3 5v9l-3 6-4 4-5 1h-19l-1-1v-27z" fill="#FDFDFD"/>
<path transform="translate(719,1153)" d="m0 0 2 1v75l-1 25 5 2 23 12 8 5 4 1-1-112 1-9h1v124h-33l-9-1z" fill="#B0D9DD"/>
<path transform="translate(1413,1292)" d="m0 0h1v121h104v-31h1v32h-242l-2-5-3-11 16 6 9 4 8 4 105 1-1-34h3v-49z" fill="#B2DADD"/>
<path transform="translate(617,1548)" d="m0 0h7l8 4 3 5 1 4v7l-1 1-24 1-7-1v-7l4-8 6-5z" fill="#FDFDFD"/>
<path transform="translate(1290,531)" d="m0 0 6 4 1 4 3 1 4 3v2l4 2 11 15 10 17 8 17 2 7v2l2 2 1 6 2 5-1 2-3-1-5-12-3-8-4-9-8-15-1-3h-2l-7-10-9-12v-2h-2l-6-9-3-5z" fill="#74AAAA"/>
<path transform="translate(1248,1335)" d="m0 0h2l4 11 6 17-1 3h-22l2-9 8-21z" fill="#FDFDFD"/>
<path transform="translate(1272,1398)" d="m0 0 16 6 9 4 8 4 103 1v1h-131l-2-5z" fill="#B0D9DD"/>
<path transform="translate(1125,761)" d="m0 0 7 1 12 5 11 6 10 8 7 7 5 7v3l-4-2-9-7-6-4-12-10-16-10z" fill="#74AAAA"/>
<path transform="translate(1349,1429)" d="m0 0h33v20l-10-6v-2l-6-2-1-3-10-3-6-3z" fill="#90C3C7"/>
<path transform="translate(1392,1197)" d="m0 0h1l2 12v16l-2 8-1-4 1-9v-10z" fill="#B0D9DD"/>
<path transform="translate(1319,1372)" d="m0 0h1v34l-3-1-1-5 2 2z" fill="#B0D9DD"/>
<path transform="translate(808,1290)" d="m0 0h12l-1 5-6-1-5-3z" fill="#90C3C7"/>
<path transform="translate(1670,1006)" d="m0 0h9l2 2-6 1h-8l1-2z" fill="#74AAAA"/>
</svg>
