<?xml version="1.0" encoding="UTF-8"?>
<svg version="1.1" viewBox="0 0 2048 1912" width="1280" height="1280" xmlns="http://www.w3.org/2000/svg">
<path transform="translate(0)" d="m0 0h2048v1912h-2048z" fill="#FDFDFD"/>
<path transform="translate(634,323)" d="m0 0h447l41 1 24 3 26 6 28 10 23 11 20 12 17 12 11 9 10 9 16 16 11 14 10 14 12 21 12 25 9 25 4 16 3 24 3 74 1 53v63l-2 192-2 20-4 17-8 22-12 25-2 5 37-5 19-3 2-1 2-159 2-133 1-119 1-12 6-2h116l7 2 2 5v84l-2 86-1 55v179l16-1 152-16h10l1 3v21l-1 1-73 9-156 18-381 43-338 38-143 16-162 18-55 6-22 2h-19l-7-1-1-2v-21l1-1 89-11 153-17h5v-596l6-1h125l1 438 1 38h441l14-3 16-8 11-8 7-8 7-11 5-12 2-14v-339l-2-21-4-15-6-16-8-15-8-11-9-10-7-7-16-11-21-11-17-5-12-2-12-1-511-2-5-2v-127z" fill="#90C4C7"/>
<path transform="translate(1073,506)" d="m0 0h46l26 1 2 3v81l-3 3-6 1-279 1 1 224 1 20 6 2h235v-86l-1-2-9-1-137-1-5-1v-85l1-1h237l2 1v201l-4 15-7 14-8 10-9 9-15 9-12 5-10 2h-348l-5-1-1-15v-406l1-1 14-1z" fill="#90C4C7"/>
<path transform="translate(634,323)" d="m0 0h447l41 1 24 3 26 6 28 10 23 11 20 12 17 12 11 9 10 9 16 16 11 14 10 14 12 21 12 25 9 25 4 16 3 24 3 74v53h-1l-2-13-6-26-8-27-8-20-11-22-9-14-9-12-10-11-7-8-8-7-13-11-20-13-12-7-20-9-25-9-17-5-29-6-11-1-4 1-12-2-12-1-511-2-5-2v-127z" fill="#AFD8DC"/>
<path transform="translate(1073,506)" d="m0 0h46l26 1 2 3v81l-3 3-6 1-279 1 1 246-26-9-17-9-9-7-12-12-9-14-8-16-3-7-3-5-1-6v-249l14-1z" fill="#74A9A9"/>
<path transform="translate(1149,1427)" d="m0 0h29l15 3 15 6 15 10 12 12 4 5 2 1-1-17v-18l1-1 141-1 1 1v42l-45 1-1 115-5 1-46-1-1-109-1-6-41-1 5 15 3 19v11l-3 16-7 16-7 10-9 10-14 10-15 7-14 4-7 1h-21l-17-4-13-5-11-6-13-10-8-9-8-13-5-14-3-19-1-2-7 14-9 10-8 6-14 6-9 2-36 2-1 39-52 1-1-1v-158h82l19 3 12 5 11 8 7 8 6 12 2 9 1 17 7-20 7-11 6-7 8-7 14-9 12-5 11-3z" fill="#AFD8DC"/>
<path transform="translate(1069,1289)" d="m0 0h66l14 2 10 4 9 6 8 9 4 8 2 13-1 14-3 10-6 10-8 8 1 5 7 10 8 14 2 1 3-11 8-20 14-32 17-41 4-10h43l7 15 11 28 20 49 8 19v2h2l-1-28v-38l1-47h41l1 1v87l48 1 3 1v-89l1-1h104v31l-1 1-27 1h-34v12l56 1 1 1v31l-3 1h-54v12l62 1 2 1v32h-242l-3-9-4-8-13-1h-30l-2 1-3 10-3 6-3 1h-75l-2-1-13-28-5-3h-10l-1 31-1 1h-39l-1-1-1-41v-82z" fill="#90C4C7"/>
<path transform="translate(770,1152)" d="m0 0h58l15 1 14 4 11 7 7 8 6 12 1 4v18l-4 13-6 9-8 8 2 5 13 22 6 11 2 1v-122l21-1h83l2 1v30l-1 2-62 1-1 12h56l2 4-1 29-55 1-1 1v10l3 1h59l1 1v31l-1 1h-152l-3-5-8-17-4-8-1-1h-13l-1 31h-41l-1-1v-112l1-11z" fill="#91C5C8"/>
<path transform="translate(951,665)" d="m0 0h237l2 1v157h-1l-1-19-4 1-10-15-3-4-5-3-12-9-10-6-5-2v-2l-11-3-16-5-9-3-1 3-1-2-9-1-137-1-5-1v-85z" fill="#AFD8DC"/>
<path transform="translate(744,1428)" d="m0 0h56l7 15 10 25 15 35 3 5 8-20 15-35 10-25h56v158l-1 1-45-1v-80h-2l-2 6-7 19-8 21-7 18-1 1h-33l-3-4-12-31-10-27-3-2 1 37v42h-47z" fill="#AFD8DC"/>
<path transform="translate(1051,1151)" d="m0 0h16l16 4 20 10v-12l6-1h146l2 1v123l-1 1h-40l-1-1v-89h-34l-1 89-1 1h-40l-1-1v-89h-37l-2 4-8 11-4-1-8-8-11-5h-14l-8 4-5 6-4 11v11l4 11 7 7 8 3h8l10-3 9-6 5-4 4 2 14 15 7 7-2 4-9 8-16 9-13 5-6 1h-16l-14-3-16-8-11-9-6-8-6-10-4-10-1-5v-21l4-15 6-11 9-10 7-6 10-6 16-5z" fill="#91C4C7"/>
<path transform="translate(1523,322)" d="m0 0 5 1 6 7 5 10 4 15 4 21v10l-2 3-4-1-4-6h-2v8l2 4-2 9-3 9-5 24-14 48-13 43-9 27-5 9-8 4-18 7-9-1-12-6-7-7-5-10-1-3v-14l-7-21v-7l6-12 7-10 5-12 1-4v-17l-5-17-1-3v-11l3-8 5-10 2-5 29-12 16-9 8-6 7-11 2-9 7-2 5-6 4-9 2-9z" fill="#AFD8DC"/>
<path transform="translate(1452,1425)" d="m0 0 20 1 20 4 19 7 13 7-1 6-12 24-4 10-6-1-25-10-17-5h-13l-3 3 1 5 6 4 36 11 16 7 10 9 6 7 5 12 1 4v13l-4 14-7 11-8 7-16 8-14 4-7 1h-22l-18-3-20-6-23-11-7-5 2-6 11-22 5-11 4 1 9 6 17 8 18 6 5 1h13l5-3 1-2v-6l-6-3-37-11-16-7-9-7-7-8-4-9-1-5v-16l2-8 4-9 9-10 11-8 12-5 14-3z" fill="#90C4C7"/>
<path transform="translate(1321,1151)" d="m0 0h13l15 3 12 5 10 6 10 9 8 12 5 16 1 9v12l-4 16-5 9-7 9-7 7-13 8-13 5-12 2h-16l-17-4-14-7-11-9-9-11-6-13-2-8v-24l5-16 6-10 7-8 11-8 10-5 14-4z" fill="#91C4C7"/>
<path transform="translate(1069,1289)" d="m0 0h66l14 2 10 4 9 6 8 9 4 8 2 13-1 14-3 10-6 10-8 8 1 5 7 10 8 14 2 1 3-11 6-15 5 3 17 3 21 5 10 5 7 1v1l-24 1-2 1-3 10-3 6-3 1h-75l-2-1-13-28-5-3h-10l-1 31-1 1h-39l-1-1-1-41v-82z" fill="#90C4C7"/>
<path transform="translate(596,1152)" d="m0 0h54l19 2 13 4 11 6 9 8 9 13 4 10 3 15v11l-3 14-7 14-9 10-8 7-16 8-10 2-12 1h-42l-16-1v-97z" fill="#AFD8DC"/>
<path transform="translate(828,1289)" d="m0 0h34l8 9 9 12 14 18 11 15 5 6 2 1-1-20v-40l1-1h37l1 1v100l-1 24h-33l-10-11-10-14-22-28-6-7h-1l-1 60h-36l-1-1-1-48v-21z" fill="#AFD8DC"/>
<path transform="translate(1424,1152)" d="m0 0h7l9 11 13 17 16 21 8 11 2 1v-60h37l1 1v122l-1 1h-32l-5-4-12-16-8-10-20-26-5-5 1 7v53l-1 1h-37l-1-5v-118l1-1z" fill="#91C4C7"/>
<path transform="translate(957,1289)" d="m0 0h104l1 1v26l-1 5-62 1v12l56 1v32l-56 1-1 12 3 1 61 1 1 17v15h-106l-1-1v-123z" fill="#AFD8DC"/>
<path transform="translate(716,1289)" d="m0 0h104l1 1-1 31-61 1-1 1-1 12h57v32l-55 1-1 1v12l63 1v31l-1 1h-102l-3-1v-123z" fill="#AFD8DC"/>
<path transform="translate(1413,1289)" d="m0 0h104v31l-1 1-27 1h-34v12l56 1 1 1v31l-3 1h-54v12l62 1 2 1v31h-106l-1-123z" fill="#91C4C7"/>
<path transform="translate(908,1152)" d="m0 0h83l2 1v30l-1 2-62 1-1 12h56l2 4-1 29-55 1-1 1v10l3 1h59l1 1v31h-105v-122l1-1z" fill="#91C4C7"/>
<path transform="translate(651,1288)" d="m0 0h16l14 3 15 6 12 7 2 2-1 5-13 17-7 8-4-2-11-7-8-3h-14l-12 6-6 9-3 9v8l4 11 6 7 10 5h14l8-2 1-28 1-1h35v51l-14 8-18 6-11 2h-22l-14-3-15-8-10-8-9-12-5-11-3-13v-13l2-14 5-12 8-11 7-7 11-7 12-5 8-2z" fill="#AFD8DC"/>
<path transform="translate(678,1428)" d="m0 0h52v158l-1 1h-50l-1-1z" fill="#AFD8DC"/>
<path transform="translate(1393,1453)" d="m0 0 2 4 9 6 11 8 18 14 14 11 25 25 7 8 11 12 11 14 8 11 2 4-11 8-11 5-14 4-7 1h-22l-18-3-20-6-23-11-7-5 2-6 11-22 5-11 4 1 9 6 17 8 18 6 5 1h13l5-3 1-2v-6l-6-3-37-11-16-7-9-7-7-8-4-9-1-5v-16l2-8z" fill="#AFD8DC"/>
<path transform="translate(1068,1290)" d="m0 0h1l1 71 21 3 42 5 24 4h6l2 5 7 10 8 14 2 1 3-11 6-15 5 3 17 3 21 5 10 5 7 1v1l-24 1-2 1-3 10-3 6-3 1h-75l-2-1-13-28-5-3h-10l-1 31-1 1h-39l-1-1-1-41z" fill="#AFD8DC"/>
<path transform="translate(957,1289)" d="m0 0h104l1 1v26l-1 5-62 1v12l56 1v23l-1 1-11-1-46-9-25-5-15-4z" fill="#91C4C7"/>
<path transform="translate(738,1152)" d="m0 0h21l2 1v123l-1 1h-31l-10-1v-123z" fill="#90C4C7"/>
<path transform="translate(596,1152)" d="m0 0h54l19 2 13 4 11 6 9 8 9 13 4 10 3 15v11l-3 14-6 12h-5l-10-8-9-6-10-6-1-1v-17l-3-10-4-6-8-5-3-1-20-1v6l-2 2-6-5v-2l-4-2-17-17-6-8h-4z" fill="#91C4C7"/>
<path transform="translate(628,1427)" d="m0 0 9 1 8 7 4 9v20l-3 9-2 5 5 1 1 16v29l-56 1-3-1v-45l13 1 1 1 1 23 1 1h7l1-22 4-1h7l1 1v22h6l1-1 1-24 4-4-8-4 2-10 1-4v-11h-3l-6 17-5 8-4 3-9 1-8-4-4-5-4-11v-9l2-10 3-6 8 1 4 3-1 10-1 3v8l4 1 9-24 5-5z" fill="#AFD8DC"/>
<path transform="translate(1157,1471)" d="m0 0h13l11 4 10 9 4 8 2 8v13l-3 12-7 10-8 6-7 3-11 1-10-3-10-6-7-10-3-9v-17l4-11 4-6 8-8z" fill="#FEFEFE"/>
<path transform="translate(612,1531)" d="m0 0h17l8 3 7 8 4 7 1 4 1 34-1 1h-58l1-36 3-9 5-6z" fill="#B0D9DD"/>
<path transform="translate(1320,1187)" d="m0 0h14l8 4 7 8 3 8v15l-6 12-8 7-9 3-8-1-10-5-6-7-4-11v-9l3-10 6-8 7-5z" fill="#FEFEFE"/>
<path transform="translate(637,1186)" d="m0 0h19l10 5 5 6 3 7 1 5v10l-3 12-7 9-5 3-4 1h-19z" fill="#FEFEFE"/>
<path transform="translate(911,1289)" d="m0 0h37v48l-10-1-26-6-1-1-1-39z" fill="#90C4C7"/>
<path transform="translate(992,1469)" d="m0 0h25l6 4 4 6v14l-6 9-7 3-11 1h-10l-2-6v-28z" fill="#FEFEFE"/>
<path transform="translate(828,1289)" d="m0 0h34l8 9 15 20v2l-11-2-36-12-9-4-1-4z" fill="#91C4C8"/>
<path transform="translate(1111,1321)" d="m0 0h19l8 3 4 5v11l-5 8-2 1h-25v-27z" fill="#FEFEFE"/>
<path transform="translate(811,1185)" d="m0 0h22l5 3 4 5v8l-4 8-4 3-6 1h-17l-1-1v-26z" fill="#FEFEFE"/>
<path transform="translate(760,1153)" d="m0 0h1v123l-1 1h-31l-10-1v-120h1v99l6 2 19 10 12 7 3 1z" fill="#B0D9DD"/>
<path transform="translate(1412,1319)" d="m0 0h1v94h106v1h-242l-5-15 12 4 15 7 4 2h107v-33h2z" fill="#B0D9DD"/>
<path transform="translate(621,1548)" d="m0 0 8 2 5 5 2 6v7l-1 1h-30l-1-1 1-8 4-7 5-4z" fill="#FEFEFE"/>
<path transform="translate(1248,1335)" d="m0 0 4 4 8 24-1 3h-22l2-9 8-21z" fill="#FEFEFE"/>
<path transform="translate(1372,1427)" d="m0 0h10v22l-12-6-17-10-5-4z" fill="#90C4C7"/>
<path transform="translate(1412,1319)" d="m0 0h1v94h106v1h-109v-35h2z" fill="#B0D9DD"/>
<path transform="translate(1126,762)" d="m0 0 7 1 15 6 14 10 9 8 2 5-5-2-10-8-18-12-14-7z" fill="#74A9A9"/>
<path transform="translate(1412,1319)" d="m0 0h1v82l-3 1v-23h2z" fill="#B6DCDF"/>
<path transform="translate(1110,1570)" d="m0 0 5 2 14 7 11 4 6 1v1h-9l-13-5-11-6-3-2z" fill="#98C9CC"/>
<path transform="translate(802,1290)" d="m0 0h18v5l-3 2-8-4-7-2z" fill="#90C4C7"/>
<path transform="translate(1317,442)" d="m0 0h2l11 19 3 6-1 4-10-19-5-8z" fill="#9ACACD"/>
<path transform="translate(724,1581)" d="m0 0 4 1 1 5h-8l-2-3z" fill="#96C8CB"/>
<path transform="translate(1523,322)" d="m0 0 5 1-1 5-5 1v-6z" fill="#98C9CC"/>
<path transform="translate(1131,1580)" d="m0 0 9 3 6 1v1h-9l-9-3z" fill="#9BCBCE"/>
<path transform="translate(1334,1580)" d="m0 0h2v7l-5-1-1-2h2z" fill="#94C7CA"/>
</svg>
